M48
; DRILL file KiCad 10.0.6 date 2026-09-22T19:46:40
; FORMAT={-:-/ absolute / metric / decimal}
; #@! TF.CreationDate,2026-09-22T19:46:40+05:30
; #@! TF.GenerationSoftware,Kicad,Pcbnew,10.0.6
; #@! TF.FileFunction,MixedPlating,1,2
FMAT,2
METRIC
; #@! TA.AperFunction,Plated,PTH,ViaDrill
T1C0.350
; #@! TA.AperFunction,Plated,PTH,ViaDrill
T2C0.400
; #@! TA.AperFunction,Plated,PTH,ComponentDrill
T3C0.500
; #@! TA.AperFunction,Plated,PTH,ComponentDrill
T4C0.600
; #@! TA.AperFunction,Plated,PTH,ComponentDrill
T5C1.000
; #@! TA.AperFunction,Plated,PTH,ComponentDrill
T6C1.300
; #@! TA.AperFunction,Plated,PTH,ComponentDrill
T7C3.200
; #@! TA.AperFunction,NonPlated,NPTH,ComponentDrill
T8C0.650
; #@! TA.AperFunction,NonPlated,NPTH,ComponentDrill
T9C2.390
; #@! TA.AperFunction,NonPlated,NPTH,ComponentDrill
T10C3.450
%
G90
G05
T1
X86.71Y-69.51
X87.21Y-67.51
X87.21Y-77.51
X87.21Y-79.51
X87.21Y-81.51
X87.21Y-83.51
X87.21Y-85.51
X87.21Y-87.51
X87.21Y-89.51
X87.21Y-91.51
X87.21Y-93.51
X87.21Y-95.51
X87.21Y-97.51
X87.21Y-99.51
X87.21Y-101.51
X87.21Y-103.51
X87.21Y-105.51
X87.21Y-107.51
X87.21Y-109.51
X87.21Y-111.51
X87.21Y-113.51
X87.21Y-115.51
X89.21Y-67.51
X89.21Y-77.51
X89.21Y-79.51
X89.21Y-81.51
X89.21Y-83.51
X89.21Y-85.51
X89.21Y-87.51
X89.21Y-89.51
X89.21Y-91.51
X89.21Y-93.51
X89.21Y-95.51
X89.21Y-97.51
X89.21Y-99.51
X89.21Y-101.51
X89.21Y-103.51
X89.21Y-105.51
X89.21Y-107.51
X89.21Y-109.51
X89.21Y-111.51
X89.21Y-113.51
X89.21Y-115.51
X89.71Y-69.51
X91.21Y-67.51
X91.21Y-69.51
X91.21Y-71.51
X91.21Y-73.51
X91.21Y-75.51
X91.21Y-77.51
X91.21Y-79.51
X91.21Y-81.51
X91.21Y-83.51
X91.21Y-85.51
X91.21Y-87.51
X91.21Y-89.51
X91.21Y-91.51
X91.21Y-93.51
X91.21Y-95.51
X91.21Y-97.51
X91.21Y-99.51
X91.21Y-101.51
X91.21Y-103.51
X91.21Y-105.51
X91.21Y-107.51
X91.21Y-109.51
X91.21Y-111.51
X91.21Y-113.51
X91.21Y-115.51
X93.21Y-61.51
X93.21Y-63.51
X93.21Y-65.51
X93.21Y-67.51
X93.21Y-69.51
X93.21Y-71.51
X93.21Y-73.51
X93.21Y-75.51
X93.21Y-77.51
X93.21Y-79.51
X93.21Y-81.51
X93.21Y-83.51
X93.21Y-85.51
X93.21Y-87.51
X93.21Y-89.51
X93.21Y-91.51
X93.21Y-93.51
X93.21Y-95.51
X93.21Y-97.51
X93.21Y-99.51
X93.21Y-101.51
X93.21Y-103.51
X93.21Y-105.51
X93.21Y-107.51
X93.21Y-109.51
X93.21Y-111.51
X93.21Y-113.51
X93.21Y-115.51
X93.21Y-117.51
X93.21Y-119.51
X93.21Y-121.51
X95.21Y-61.51
X95.21Y-63.51
X95.21Y-65.51
X95.21Y-67.51
X95.21Y-69.51
X95.21Y-71.51
X95.21Y-73.51
X95.21Y-75.51
X95.21Y-77.51
X95.21Y-79.51
X95.21Y-81.51
X95.21Y-83.51
X95.21Y-85.51
X95.21Y-87.51
X95.21Y-89.51
X95.21Y-91.51
X95.21Y-93.51
X95.21Y-95.51
X95.21Y-97.51
X95.21Y-99.51
X95.21Y-101.51
X95.21Y-103.51
X95.21Y-105.51
X95.21Y-107.51
X95.21Y-109.51
X95.21Y-111.51
X95.21Y-113.51
X95.21Y-115.51
X95.21Y-117.51
X95.21Y-119.51
X95.21Y-121.51
X97.21Y-61.51
X97.21Y-64.01
X97.21Y-65.51
X97.21Y-67.51
X97.21Y-69.51
X97.21Y-71.51
X97.21Y-73.51
X97.21Y-75.51
X97.21Y-77.51
X97.21Y-79.51
X97.21Y-81.51
X97.21Y-83.51
X97.21Y-85.51
X97.21Y-87.51
X97.21Y-89.51
X97.21Y-91.51
X97.21Y-93.51
X97.21Y-95.51
X97.21Y-97.51
X97.21Y-99.51
X97.21Y-101.51
X97.21Y-103.51
X97.21Y-105.51
X97.21Y-107.51
X97.21Y-109.51
X97.21Y-111.51
X97.21Y-113.51
X97.21Y-115.51
X97.21Y-117.51
X97.21Y-119.51
X97.21Y-121.51
X99.21Y-61.51
X99.21Y-64.01
X99.21Y-65.51
X99.21Y-67.51
X99.21Y-69.51
X99.21Y-71.51
X99.21Y-73.51
X99.21Y-75.51
X99.21Y-77.51
X99.21Y-79.51
X99.21Y-81.51
X99.21Y-83.51
X99.21Y-85.51
X99.21Y-87.51
X99.21Y-89.51
X99.21Y-91.51
X99.21Y-93.51
X99.21Y-95.51
X99.21Y-97.51
X99.21Y-99.51
X99.21Y-101.51
X99.21Y-103.51
X99.21Y-105.51
X99.21Y-107.51
X99.21Y-109.51
X99.21Y-111.51
X99.21Y-113.51
X99.21Y-115.51
X99.21Y-117.51
X99.21Y-119.51
X99.21Y-121.51
X101.21Y-61.51
X101.21Y-65.51
X101.21Y-67.51
X101.21Y-69.51
X101.21Y-71.51
X101.21Y-73.51
X101.21Y-75.51
X101.21Y-77.51
X101.21Y-79.51
X101.21Y-81.51
X101.21Y-83.51
X101.21Y-85.51
X101.21Y-87.51
X101.21Y-89.51
X101.21Y-91.51
X101.21Y-93.51
X101.21Y-95.51
X101.21Y-97.51
X101.21Y-99.51
X101.21Y-101.51
X101.21Y-103.51
X101.21Y-105.51
X101.21Y-107.51
X101.21Y-109.51
X101.21Y-111.51
X101.21Y-113.51
X101.21Y-115.51
X101.21Y-117.51
X101.21Y-119.51
X101.21Y-121.51
X101.71Y-63.51
X103.21Y-61.51
X103.21Y-63.51
X103.21Y-65.51
X103.21Y-67.51
X103.21Y-69.51
X103.21Y-71.51
X103.21Y-73.51
X103.21Y-75.51
X103.21Y-77.51
X103.21Y-79.51
X103.21Y-81.51
X103.21Y-83.51
X103.21Y-85.51
X103.21Y-87.51
X103.21Y-89.51
X103.21Y-91.51
X103.21Y-93.51
X103.21Y-95.51
X103.21Y-97.51
X103.21Y-99.51
X103.21Y-101.51
X103.21Y-103.51
X103.21Y-105.51
X103.21Y-107.51
X103.21Y-109.51
X103.21Y-111.51
X103.21Y-113.51
X103.21Y-115.51
X103.21Y-117.51
X103.21Y-119.51
X103.21Y-121.51
X105.21Y-61.51
X105.21Y-63.51
X105.21Y-65.51
X105.21Y-67.51
X105.21Y-69.51
X105.21Y-71.51
X105.21Y-73.51
X105.21Y-75.51
X105.21Y-77.51
X105.21Y-79.51
X105.21Y-81.51
X105.21Y-83.51
X105.21Y-85.51
X105.21Y-87.51
X105.21Y-89.51
X105.21Y-91.51
X105.21Y-93.51
X105.21Y-95.51
X105.21Y-97.51
X105.21Y-99.51
X105.21Y-101.51
X105.21Y-103.51
X105.21Y-105.51
X105.21Y-107.51
X105.21Y-109.51
X105.21Y-111.51
X105.21Y-113.51
X105.21Y-115.51
X105.21Y-117.51
X105.21Y-119.51
X105.21Y-121.51
X107.21Y-67.51
X107.21Y-69.51
X107.21Y-71.51
X107.21Y-73.51
X107.21Y-75.51
X107.21Y-77.51
X107.21Y-79.51
X107.21Y-81.51
X107.21Y-83.51
X107.21Y-85.51
X107.21Y-87.51
X107.21Y-89.51
X107.21Y-91.51
X107.21Y-93.51
X107.21Y-95.51
X107.21Y-97.51
X107.21Y-99.51
X107.21Y-101.51
X107.21Y-103.51
X107.21Y-105.51
X107.21Y-107.51
X107.21Y-109.51
X107.21Y-111.51
X107.21Y-113.51
X107.21Y-115.51
X107.21Y-117.51
X107.21Y-119.51
X107.21Y-121.51
X108.857Y-61.157
X109.21Y-65.51
X109.21Y-69.51
X109.21Y-71.51
X109.21Y-73.51
X109.21Y-75.51
X109.21Y-77.51
X109.21Y-79.51
X109.21Y-81.51
X109.21Y-83.51
X109.21Y-85.51
X109.21Y-87.51
X109.21Y-89.51
X109.21Y-91.51
X109.21Y-93.51
X109.21Y-95.51
X109.21Y-97.51
X109.21Y-99.51
X111.21Y-65.51
X111.21Y-71.51
X111.21Y-73.51
X111.21Y-75.51
X111.21Y-77.51
X111.21Y-79.51
X111.21Y-81.51
X111.21Y-83.51
X111.21Y-85.51
X111.21Y-87.51
X111.21Y-89.51
X111.21Y-91.51
X111.21Y-93.51
X111.21Y-95.51
X111.21Y-97.51
X111.21Y-101.51
X111.21Y-103.51
X111.21Y-105.51
X111.21Y-107.51
X111.21Y-109.51
X111.21Y-111.51
X111.21Y-113.51
X111.21Y-115.51
X111.21Y-117.51
X111.71Y-61.51
X113.21Y-61.51
X113.21Y-63.51
X113.21Y-65.51
X113.21Y-67.51
X113.21Y-73.51
X113.21Y-75.51
X113.21Y-77.51
X113.21Y-79.51
X113.21Y-81.51
X113.21Y-83.51
X113.21Y-85.51
X113.21Y-87.51
X113.21Y-89.51
X113.21Y-91.51
X113.21Y-93.51
X113.21Y-95.51
X113.21Y-97.51
X113.21Y-99.51
X113.21Y-101.51
X113.21Y-105.51
X113.21Y-107.51
X113.21Y-109.51
X113.21Y-111.51
X113.21Y-113.51
X113.21Y-115.51
X113.21Y-119.51
X113.21Y-121.51
X115.21Y-61.51
X115.21Y-63.51
X115.21Y-65.51
X115.21Y-67.51
X115.21Y-69.51
X115.21Y-75.51
X115.21Y-77.51
X115.21Y-79.51
X115.21Y-81.51
X115.21Y-109.51
X115.21Y-111.51
X115.21Y-113.51
X115.21Y-117.51
X115.21Y-119.51
X115.21Y-121.51
X117.21Y-61.51
X117.21Y-69.51
X117.21Y-79.51
X117.21Y-81.51
X117.21Y-85.51
X117.21Y-87.51
X117.21Y-89.51
X117.21Y-91.51
X117.21Y-93.51
X117.21Y-95.51
X117.21Y-97.51
X117.21Y-99.51
X117.21Y-111.51
X117.21Y-115.51
X117.21Y-117.51
X117.21Y-119.51
X117.21Y-121.51
X118.71Y-97.51
X118.857Y-63.864
X119.21Y-61.51
X119.21Y-67.51
X119.21Y-87.51
X119.21Y-89.51
X119.21Y-91.51
X119.21Y-93.51
X119.21Y-95.51
X119.21Y-113.51
X119.21Y-115.51
X119.21Y-117.51
X119.21Y-119.51
X119.21Y-121.51
X121.21Y-61.51
X121.21Y-63.51
X121.21Y-73.51
X121.21Y-107.51
X121.21Y-111.51
X121.21Y-113.51
X121.21Y-115.51
X121.21Y-117.51
X121.21Y-119.51
X121.21Y-121.51
X123.21Y-61.51
X123.21Y-63.51
X123.21Y-65.51
X123.21Y-81.51
X123.21Y-86.01
X123.21Y-87.51
X123.21Y-89.51
X123.21Y-91.51
X123.21Y-105.51
X123.21Y-107.51
X123.21Y-111.51
X123.21Y-113.51
X123.21Y-115.51
X123.21Y-117.51
X123.21Y-119.51
X123.21Y-121.51
X125.21Y-61.51
X125.21Y-63.51
X125.21Y-65.51
X125.21Y-105.51
X125.21Y-107.51
X125.21Y-111.51
X125.21Y-113.51
X125.21Y-115.51
X125.21Y-117.51
X125.21Y-119.51
X125.21Y-121.51
X127.21Y-61.51
X127.21Y-63.51
X127.21Y-65.51
X127.21Y-107.51
X127.21Y-111.51
X127.21Y-113.51
X127.21Y-115.51
X127.21Y-119.51
X129.21Y-61.51
X129.21Y-63.51
X129.21Y-65.51
X129.21Y-75.51
X129.21Y-81.51
X129.21Y-83.51
X129.21Y-85.51
X129.21Y-87.51
X129.21Y-89.51
X129.21Y-91.51
X129.21Y-107.51
X129.21Y-111.51
X129.21Y-113.51
X129.21Y-115.51
X129.21Y-119.51
X130.3Y-102.7
X131.21Y-61.51
X131.21Y-63.51
X131.21Y-65.51
X131.21Y-81.51
X131.21Y-83.51
X131.21Y-85.51
X131.21Y-87.51
X131.21Y-89.51
X131.21Y-91.51
X131.21Y-105.51
X131.21Y-107.51
X131.21Y-111.51
X131.21Y-113.51
X131.21Y-117.51
X131.21Y-119.51
X133.2Y-100.0
X133.21Y-61.51
X133.21Y-63.51
X133.21Y-65.51
X133.21Y-79.51
X133.21Y-81.51
X133.21Y-83.51
X133.21Y-85.51
X133.21Y-87.51
X133.21Y-89.51
X133.21Y-91.51
X133.21Y-93.51
X133.21Y-95.51
X133.21Y-97.51
X133.21Y-103.51
X133.21Y-105.51
X133.21Y-107.51
X133.21Y-111.51
X133.21Y-115.51
X133.21Y-117.51
X133.21Y-119.51
X133.3Y-75.1
X135.21Y-61.51
X135.21Y-63.51
X135.21Y-67.51
X135.21Y-69.51
X135.21Y-73.51
X135.21Y-75.51
X135.21Y-79.51
X135.21Y-81.51
X135.21Y-83.51
X135.21Y-85.51
X135.21Y-87.51
X135.21Y-89.51
X135.21Y-91.51
X135.21Y-93.51
X135.21Y-95.51
X135.21Y-103.51
X135.21Y-105.51
X135.21Y-107.51
X135.21Y-111.51
X135.21Y-115.51
X136.8Y-96.4
X136.857Y-89.864
X137.2Y-102.4
X137.21Y-67.51
X137.21Y-71.51
X137.21Y-73.51
X137.21Y-75.51
X137.21Y-79.51
X137.21Y-81.51
X137.21Y-83.51
X137.21Y-85.51
X137.21Y-91.51
X137.21Y-93.51
X137.21Y-99.51
X137.564Y-65.864
X139.21Y-69.51
X139.21Y-71.51
X139.21Y-73.51
X139.21Y-75.51
X139.21Y-79.51
X139.21Y-81.51
X139.21Y-83.51
X139.21Y-85.51
X139.21Y-91.51
X139.21Y-97.51
X139.21Y-103.51
X139.21Y-105.51
X139.21Y-107.51
X139.21Y-111.51
X139.21Y-115.51
X140.9Y-98.7
X141.2Y-91.8
X141.21Y-67.51
X141.21Y-69.51
X141.21Y-71.51
X141.21Y-73.51
X141.21Y-75.51
X141.21Y-79.51
X141.21Y-81.51
X141.21Y-83.51
X141.21Y-85.51
X141.21Y-95.51
X141.564Y-89.157
X141.7Y-102.4
X141.7Y-105.1
X141.7Y-111.3
X141.7Y-116.9
X142.96Y-100.16
X143.21Y-65.51
X143.21Y-67.51
X143.21Y-69.51
X143.21Y-71.51
X143.21Y-73.51
X143.21Y-75.51
X143.21Y-79.51
X143.21Y-81.51
X143.21Y-83.51
X143.21Y-85.51
X143.21Y-87.51
X143.21Y-93.51
X143.21Y-107.51
X143.21Y-111.51
X143.21Y-115.51
X143.21Y-117.51
X143.21Y-119.51
X143.6Y-96.0
X145.2Y-87.9
X145.21Y-65.51
X145.21Y-67.51
X145.21Y-69.51
X145.21Y-71.51
X145.21Y-73.51
X145.21Y-75.51
X145.21Y-79.51
X145.21Y-81.51
X145.21Y-83.51
X145.21Y-85.51
X145.21Y-91.51
X145.21Y-101.51
X145.21Y-111.51
X145.21Y-115.51
X145.21Y-117.51
X145.21Y-119.51
X145.21Y-121.51
X146.9Y-92.6
X147.21Y-65.51
X147.21Y-67.51
X147.21Y-69.51
X147.21Y-71.01
X147.21Y-73.51
X147.21Y-75.51
X147.21Y-79.51
X147.21Y-81.51
X147.21Y-83.51
X147.21Y-89.51
X147.21Y-99.51
X147.21Y-101.51
X147.21Y-109.51
X147.21Y-113.51
X147.21Y-115.51
X147.21Y-117.51
X148.857Y-117.864
X148.857Y-121.864
X149.1Y-84.2
X149.21Y-65.51
X149.21Y-67.51
X149.21Y-73.51
X149.21Y-75.51
X149.21Y-79.51
X149.21Y-81.51
X149.21Y-87.51
X149.21Y-97.51
X149.21Y-111.51
X149.21Y-113.51
X149.21Y-115.51
X149.3Y-90.3
X149.564Y-99.864
X149.71Y-101.51
X150.662Y-97.5
X150.857Y-65.864
X151.2Y-69.0
X151.2Y-71.9
X151.21Y-109.51
X151.21Y-121.51
X151.71Y-113.51
X152.6Y-87.0
X152.857Y-109.864
X153.21Y-65.51
X153.21Y-93.51
X153.21Y-97.51
X153.21Y-99.51
X153.21Y-101.51
X153.21Y-119.51
X153.21Y-121.51
X153.8Y-72.0
X154.3Y-82.8
X154.857Y-73.864
X154.857Y-95.157
X155.2Y-84.3
X155.21Y-91.51
X155.21Y-97.51
X155.21Y-99.51
X155.21Y-101.51
X155.21Y-109.51
X155.21Y-111.51
X155.21Y-117.51
X155.21Y-119.51
X155.21Y-121.51
X155.564Y-103.864
X156.0Y-83.2
X156.3Y-70.2
X156.857Y-95.864
X157.21Y-65.51
X157.21Y-67.51
X157.21Y-97.51
X157.21Y-99.51
X157.21Y-101.51
X157.21Y-121.51
X157.8Y-70.2
X159.21Y-65.51
X159.21Y-67.51
X159.21Y-87.51
X159.21Y-91.51
X159.21Y-97.51
X159.21Y-99.51
X159.21Y-107.51
X159.21Y-111.51
X159.21Y-113.51
X159.5Y-94.4
X159.71Y-115.51
X159.71Y-117.51
X159.71Y-121.51
X161.21Y-101.51
X161.21Y-107.51
X161.21Y-111.51
X161.21Y-113.51
X161.21Y-115.51
X161.21Y-117.51
X161.25Y-66.1
X161.4Y-96.9
X161.519Y-91.207
X162.9Y-97.0
X163.21Y-61.51
X163.21Y-99.51
X163.21Y-107.51
X163.21Y-111.51
X163.21Y-113.51
X163.21Y-115.51
X163.21Y-117.51
X163.21Y-119.51
X163.21Y-121.51
X163.3Y-90.8
X163.564Y-87.864
X163.9Y-96.3
X165.2Y-81.73
X165.21Y-97.51
X165.21Y-99.51
X165.21Y-101.51
X165.21Y-103.51
X165.21Y-105.51
X165.21Y-107.51
X165.21Y-117.51
X165.21Y-119.51
X165.21Y-121.51
X165.564Y-87.864
X165.662Y-79.07
X166.1Y-81.8
X166.562Y-79.0
X166.857Y-77.864
X166.9Y-82.3
X167.21Y-89.51
X167.21Y-93.51
X167.21Y-99.51
X167.21Y-117.51
X167.21Y-121.51
X167.362Y-78.5
X167.362Y-83.1
X167.5Y-84.0
X167.564Y-119.864
X167.6Y-94.7
X167.762Y-76.7
X167.762Y-77.6
X167.8Y-84.8
X168.1Y-61.2
X168.2Y-85.7
X168.262Y-75.9
X169.0Y-86.1
X169.162Y-75.5
X169.21Y-63.51
X169.21Y-65.51
X169.21Y-67.51
X169.21Y-71.51
X169.21Y-87.51
X169.21Y-91.51
X169.21Y-95.51
X169.21Y-97.51
X169.21Y-99.51
X169.21Y-103.51
X169.21Y-105.51
X169.21Y-107.51
X169.21Y-117.51
X169.21Y-121.51
X169.564Y-119.864
X169.9Y-69.0
X170.0Y-86.1
X170.062Y-75.5
X170.857Y-89.157
X171.0Y-86.1
X171.062Y-75.5
X171.1Y-94.7
X171.21Y-63.51
X171.21Y-65.51
X171.21Y-67.51
X171.21Y-69.51
X171.21Y-71.51
X171.21Y-73.51
X171.21Y-77.01
X171.21Y-87.51
X171.21Y-93.51
X171.21Y-99.51
X171.21Y-103.51
X171.21Y-117.51
X171.21Y-121.51
X171.564Y-119.864
X171.6Y-85.2
X171.963Y-75.9
X172.262Y-76.7
X172.463Y-81.3
X172.5Y-84.8
X172.562Y-77.7
X173.21Y-63.51
X173.21Y-65.51
X173.21Y-67.51
X173.21Y-69.51
X173.21Y-71.51
X173.21Y-73.51
X173.21Y-77.01
X173.21Y-85.51
X173.21Y-87.51
X173.21Y-90.01
X173.21Y-95.51
X173.21Y-97.51
X173.21Y-99.51
X173.21Y-115.51
X173.21Y-117.51
X173.21Y-119.51
X173.21Y-121.51
X173.5Y-84.7
X173.5Y-103.4
X173.562Y-77.8
X173.562Y-78.8
X173.562Y-79.8
X173.562Y-80.8
X173.6Y-81.8
X173.6Y-82.7
X173.6Y-83.7
X175.21Y-63.51
X175.21Y-65.51
X175.21Y-67.51
X175.21Y-69.51
X175.21Y-71.51
X175.21Y-73.51
X175.21Y-77.51
X175.21Y-79.51
X175.21Y-81.51
X175.21Y-83.51
X175.21Y-85.51
X175.21Y-87.51
X175.21Y-89.51
X175.21Y-99.51
X175.21Y-121.51
X175.71Y-97.51
X176.7Y-103.4
X177.21Y-63.51
X177.21Y-65.51
X177.21Y-67.51
X177.21Y-69.51
X177.21Y-71.51
X177.21Y-73.51
X177.21Y-77.51
X177.21Y-79.51
X177.21Y-81.51
X177.21Y-83.51
X177.21Y-85.51
X177.21Y-87.51
X177.21Y-89.51
X177.21Y-97.51
X177.21Y-99.51
X177.21Y-121.51
X177.71Y-101.51
X179.21Y-63.51
X179.21Y-65.51
X179.21Y-67.51
X179.21Y-69.51
X179.21Y-71.51
X179.21Y-73.51
X179.21Y-75.51
X179.21Y-79.51
X179.21Y-81.51
X179.21Y-83.51
X179.21Y-85.51
X179.21Y-87.51
X179.21Y-93.51
X179.21Y-95.51
X179.21Y-99.51
X179.21Y-101.51
X179.21Y-103.51
X179.21Y-105.51
X179.21Y-107.51
X179.21Y-113.51
X179.21Y-121.51
X179.71Y-89.51
X181.21Y-63.51
X181.21Y-65.51
X181.21Y-67.51
X181.21Y-69.51
X181.21Y-71.51
X181.21Y-73.51
X181.21Y-75.51
X181.21Y-77.51
X181.21Y-81.51
X181.21Y-83.51
X181.21Y-85.51
X181.21Y-87.51
X181.21Y-93.51
X181.21Y-103.51
X181.21Y-105.51
X181.21Y-107.51
X181.21Y-109.51
X181.21Y-121.51
X183.21Y-63.51
X183.21Y-65.51
X183.21Y-67.51
X183.21Y-69.51
X183.21Y-71.51
X183.21Y-73.51
X183.21Y-75.51
X183.21Y-77.51
X183.21Y-79.51
X183.21Y-103.51
X183.21Y-105.51
X183.21Y-107.51
X183.21Y-109.51
X183.21Y-113.51
X183.21Y-121.51
X185.21Y-63.51
X185.21Y-65.51
X185.21Y-67.51
X185.21Y-69.51
X185.21Y-71.51
X185.21Y-73.51
X185.21Y-75.51
X185.21Y-77.51
X185.21Y-79.51
X185.21Y-81.51
X185.21Y-83.51
X185.21Y-85.51
X185.21Y-87.51
X185.21Y-89.51
X185.21Y-91.51
X185.21Y-93.51
X185.21Y-97.51
X185.21Y-103.51
X185.21Y-105.51
X185.21Y-107.51
X185.21Y-109.51
X185.21Y-113.51
X185.21Y-121.51
X187.21Y-63.51
X187.21Y-65.51
X187.21Y-67.51
X187.21Y-69.51
X187.21Y-71.51
X187.21Y-73.51
X187.21Y-75.51
X187.21Y-77.51
X187.21Y-79.51
X187.21Y-81.51
X187.21Y-83.51
X187.21Y-85.51
X187.21Y-87.51
X187.21Y-89.51
X187.21Y-91.51
X187.21Y-93.51
X187.21Y-103.51
X187.21Y-105.51
X187.21Y-107.51
X187.21Y-109.51
X187.21Y-113.51
X187.71Y-97.51
X189.21Y-63.51
X189.21Y-65.51
X189.21Y-67.51
X189.21Y-69.51
X189.21Y-71.51
X189.21Y-73.51
X189.21Y-75.51
X189.21Y-77.51
X189.21Y-79.51
X189.21Y-81.51
X189.21Y-83.51
X189.21Y-85.51
X189.21Y-87.51
X189.21Y-89.51
X189.21Y-91.51
X189.21Y-93.51
X189.21Y-97.51
X189.21Y-103.51
X189.21Y-105.51
X189.21Y-107.51
X189.21Y-113.51
X189.21Y-115.51
X189.21Y-117.51
X189.21Y-119.51
X189.71Y-111.51
X191.21Y-63.51
X191.21Y-65.51
X191.21Y-67.51
X191.21Y-69.51
X191.21Y-71.51
X191.21Y-73.51
X191.21Y-75.51
X191.21Y-77.51
X191.21Y-79.51
X191.21Y-81.51
X191.21Y-83.51
X191.21Y-85.51
X191.21Y-87.51
X191.21Y-89.51
X191.21Y-91.51
X191.21Y-93.51
X191.21Y-98.01
X191.21Y-103.51
X191.21Y-105.51
X191.21Y-107.51
X191.21Y-109.51
X191.21Y-111.51
X191.21Y-113.51
X192.857Y-77.157
X192.9Y-101.2
X193.21Y-63.51
X193.21Y-65.51
X193.21Y-67.51
X193.21Y-69.51
X193.21Y-71.51
X193.21Y-73.51
X193.21Y-75.51
X193.21Y-83.51
X193.21Y-85.51
X193.21Y-87.51
X193.21Y-89.51
X193.21Y-91.51
X193.21Y-93.51
X193.21Y-97.51
X193.21Y-99.51
X193.21Y-107.51
X193.21Y-109.51
X193.21Y-111.51
X193.21Y-113.51
X193.21Y-115.51
X193.21Y-117.51
X193.564Y-81.864
X195.21Y-63.51
X195.21Y-65.51
X195.21Y-67.51
X195.21Y-69.51
X195.21Y-71.51
X195.21Y-73.51
X195.21Y-75.51
X195.21Y-83.51
X195.21Y-85.51
X195.21Y-87.51
X195.21Y-89.51
X195.21Y-91.51
X195.21Y-93.51
X195.21Y-97.51
X195.21Y-99.51
X195.21Y-107.51
X195.21Y-109.51
X195.21Y-111.51
X195.21Y-113.51
X195.21Y-115.51
X195.21Y-121.51
X197.21Y-63.51
X197.21Y-65.51
X197.21Y-67.51
X197.21Y-69.51
X197.21Y-71.51
X197.21Y-73.51
X197.21Y-75.51
X197.21Y-77.51
X197.21Y-79.51
X197.21Y-81.51
X197.21Y-83.51
X197.21Y-85.51
X197.21Y-87.51
X197.21Y-89.51
X197.21Y-91.51
X197.21Y-93.51
X197.21Y-95.51
X197.21Y-99.51
X197.21Y-103.51
X197.21Y-105.51
X197.21Y-107.51
X197.21Y-109.51
X197.21Y-113.51
X197.21Y-115.51
X197.21Y-121.51
X199.21Y-65.51
X199.21Y-67.51
X199.21Y-69.51
X199.21Y-71.51
X199.21Y-73.51
X199.21Y-75.51
X199.21Y-77.51
X199.21Y-79.51
X199.21Y-81.51
X199.21Y-83.51
X199.21Y-85.51
X199.21Y-87.51
X199.21Y-89.51
X199.21Y-91.51
X199.21Y-93.51
X199.21Y-95.51
X199.21Y-97.51
X199.21Y-103.51
X199.21Y-105.51
X199.21Y-109.51
X199.21Y-113.51
X199.21Y-115.51
X199.21Y-121.51
X199.6Y-99.8
X201.21Y-107.51
X201.21Y-109.51
X201.21Y-113.51
X201.21Y-115.51
X203.21Y-61.51
X203.21Y-67.51
X203.21Y-75.51
X203.21Y-77.51
X203.21Y-79.51
X203.21Y-81.51
X203.21Y-83.51
X203.21Y-85.51
X203.21Y-91.51
X203.21Y-101.51
X203.3Y-103.9
X204.6Y-103.9
X205.21Y-61.51
X205.21Y-63.51
X205.21Y-75.51
X205.21Y-77.51
X205.21Y-79.51
X205.21Y-81.51
X205.21Y-83.51
X205.21Y-85.51
X205.21Y-87.51
X205.21Y-89.51
X205.21Y-91.51
X205.21Y-101.51
X205.21Y-121.51
X207.21Y-89.51
X207.21Y-91.51
X207.21Y-105.51
X207.21Y-107.51
X207.21Y-109.51
X207.21Y-115.51
X208.71Y-115.51
X209.21Y-67.51
X209.21Y-75.51
X209.21Y-77.51
X209.21Y-89.51
X209.21Y-91.51
X211.21Y-67.51
X211.21Y-69.51
X211.21Y-89.51
X211.21Y-91.51
X211.21Y-93.51
X211.21Y-95.51
X211.21Y-97.51
X211.21Y-99.51
X211.21Y-101.51
X211.21Y-113.51
X211.21Y-115.51
X211.71Y-83.51
X211.71Y-85.51
T2
X134.3Y-113.0
X144.3Y-108.9
X152.9Y-105.7
X164.1Y-83.9
T3
X86.0Y-62.7
X86.0Y-120.3
X86.703Y-61.003
X86.703Y-64.397
X86.703Y-118.603
X86.703Y-121.997
X88.4Y-60.3
X88.4Y-65.1
X88.4Y-117.9
X88.4Y-122.7
X90.097Y-61.003
X90.097Y-64.397
X90.097Y-118.603
X90.097Y-121.997
X90.8Y-62.7
X90.8Y-120.3
X207.6Y-62.7
X207.6Y-120.3
X208.303Y-61.003
X208.303Y-64.397
X208.303Y-118.603
X208.303Y-121.997
X210.0Y-60.3
X210.0Y-65.1
X210.0Y-117.9
X210.0Y-122.7
X211.697Y-61.003
X211.697Y-64.397
X211.697Y-118.603
X211.697Y-121.997
X212.4Y-62.7
X212.4Y-120.3
T5
X88.2Y-70.7
X88.2Y-73.24
X88.2Y-75.78
X97.825Y-62.8
X100.365Y-62.8
X107.625Y-62.8
X108.7Y-120.2
X110.165Y-62.8
X111.24Y-120.2
X119.7Y-70.08
X119.7Y-72.62
X119.7Y-75.16
X119.7Y-77.7
X119.7Y-80.24
X119.7Y-82.78
X119.7Y-85.32
X120.01Y-98.39
X120.01Y-100.93
X120.01Y-103.47
X120.01Y-106.01
X128.32Y-121.7
X130.86Y-121.7
X133.4Y-121.7
X135.94Y-121.7
X138.48Y-121.7
X141.02Y-121.7
T7
X88.4Y-62.7
X88.4Y-120.3
X210.0Y-62.7
X210.0Y-120.3
T8
X151.41Y-117.295
X157.19Y-117.295
T9
X130.795Y-79.565
X203.055Y-88.065
T10
X139.305Y-63.565
X139.305Y-88.065
X194.545Y-79.565
X194.545Y-104.065
T4
G00X149.98Y-116.245
M15
G01X149.98Y-117.345
M16
G05
G00X149.98Y-120.575
M15
G01X149.98Y-121.375
M16
G05
G00X158.62Y-116.245
M15
G01X158.62Y-117.345
M16
G05
G00X158.62Y-120.575
M15
G01X158.62Y-121.375
M16
G05
T6
G00X182.0Y-117.85
M15
G01X182.0Y-116.15
M16
G05
G00X186.7Y-117.85
M15
G01X186.7Y-116.15
M16
G05
G00X191.4Y-117.85
M15
G01X191.4Y-116.15
M16
G05
M30
